<?xml version="1.0" encoding="utf-8"?>
<!-- Generator: Adobe Illustrator 26.0.1, SVG Export Plug-In . SVG Version: 6.00 Build 0)  -->
<!DOCTYPE svg PUBLIC "-//W3C//DTD SVG 1.1//EN" "http://www.w3.org/Graphics/SVG/1.1/DTD/svg11.dtd" [
	<!ENTITY ns_extend "http://ns.adobe.com/Extensibility/1.0/">
	<!ENTITY ns_ai "http://ns.adobe.com/AdobeIllustrator/10.0/">
	<!ENTITY ns_graphs "http://ns.adobe.com/Graphs/1.0/">
	<!ENTITY ns_vars "http://ns.adobe.com/Variables/1.0/">
	<!ENTITY ns_imrep "http://ns.adobe.com/ImageReplacement/1.0/">
	<!ENTITY ns_sfw "http://ns.adobe.com/SaveForWeb/1.0/">
	<!ENTITY ns_custom "http://ns.adobe.com/GenericCustomNamespace/1.0/">
	<!ENTITY ns_adobe_xpath "http://ns.adobe.com/XPath/1.0/">
]>
<svg version="1.1" id="Слой_1" xmlns:x="&ns_extend;" xmlns:i="&ns_ai;" xmlns:graph="&ns_graphs;"
	 xmlns="http://www.w3.org/2000/svg" xmlns:xlink="http://www.w3.org/1999/xlink" x="0px" y="0px" width="771.1px" height="90.9px"
	 viewBox="0 0 771.1 90.9" style="enable-background:new 0 0 771.1 90.9;" xml:space="preserve">
<style type="text/css">
	.st0{fill-rule:evenodd;clip-rule:evenodd;fill:#070001;}
</style>
<g>
	<path class="st0" d="M0,83.9h15.1V52.3h31.2H60h1.3V7.4H60H46.3H15.1H9.7H0V83.9L0,83.9z M83.8,83.9h-7.3V7.4h15.1v61.4h29.8V7.4
		h15.1v76.5h-7.7h-7.4H91.5H83.8L83.8,83.9z M15.1,37.2V22.5h31.2v14.8H15.1z"/>
	<path class="st0" d="M304.2,83.9h-15.1V68.8V7.4h15.1v61.4h45.2v15.1H304.2L304.2,83.9z M409.8,53.2V38.1h-30.2V22.5h45.2V7.4
		h-45.2h-15.1v15.1v46.3v15.1h15.1h45.2V68.8h-45.2V53.2H409.8z"/>
	<path class="st0" d="M500,83.9h-15.1V22.5V7.4H500h45.2v15.1H500v15.6h30.2v15.1H500V83.9L500,83.9z M650.5,22.5h45.2V7.4h-45.2
		h-15.1v15.1v46.3v15.1h15.1h45.2V68.8h-45.2V22.5L650.5,22.5z M756,53.2V38.1h-30.2V22.5h45.2V7.4h-45.2h-15.1v15.1v46.3v15.1h15.1
		h45.2V68.8h-45.2V53.2H756L756,53.2z M567.7,7.4h-7.3v76.5h15.1V53.2h29.8v30.7h15.1V7.4h-7.7h-7.4h-29.8H567.7L567.7,7.4z
		 M575.4,38.1V22.5h29.8v15.6H575.4z"/>
</g>
</svg>
